<svg width="498" height="101" xmlns="http://www.w3.org/2000/svg" xmlns:xlink="http://www.w3.org/1999/xlink" overflow="hidden"><defs><clipPath id="clip0"><rect x="291" y="240" width="498" height="101"/></clipPath></defs><g clip-path="url(#clip0)" transform="translate(-291 -240)"><path d="M236.583 21.8203C236.583 26.0453 233.158 29.4705 228.933 29.4705 224.707 29.4705 221.282 26.0453 221.282 21.8203 221.282 17.5952 224.707 14.1701 228.933 14.1701 233.158 14.1701 236.583 17.5952 236.583 21.8203Z" fill="#009BDA" transform="matrix(1 0 0 1.00251 291 240)"/><path d="M92.6214 74.3724C92.6214 78.5975 89.1963 82.0226 84.9713 82.0226 80.7462 82.0226 77.3211 78.5975 77.3211 74.3724 77.3211 70.1473 80.7462 66.7222 84.9713 66.7222 89.1963 66.7222 92.6214 70.1473 92.6214 74.3724Z" fill="#009BDA" transform="matrix(1 0 0 1.00251 291 240)"/><path d="M67.6313 69.3186C66.3512 68.0413 65.5822 66.3401 65.469 64.5352 61.869 67.6582 57.2436 69.3439 52.4784 69.2695 47.6103 69.3223 42.8817 67.6445 39.1356 64.5352 34.1447 60.489 31.6492 54.9903 31.6492 48.039 31.6492 41.8085 33.6314 36.6702 37.5957 32.6239 41.413 28.6306 46.7344 26.4277 52.2572 26.5545 57.8041 26.4614 63.1321 28.7163 66.9269 32.7632 70.9054 36.8028 73.0799 42.2804 72.9554 47.9489 72.9934 50.9099 72.4363 53.8485 71.3172 56.5902 71.8236 56.4844 72.3397 56.4322 72.8571 56.4345 74.843 56.4074 76.7497 57.2123 78.1156 58.6542 79.5404 60.0806 80.3189 62.0283 80.2697 64.0438 80.2696 64.4858 80.2312 64.9271 80.1551 65.3625 83.3478 60.1555 84.9901 54.1461 84.8893 48.039 85.0769 39.2187 81.629 30.7095 75.3553 24.5068 69.3801 18.2473 61.074 14.7499 52.4211 14.8499 40.7063 14.8613 29.8811 21.1005 23.999 31.2315 21.0936 36.2668 19.589 41.9882 19.6415 47.8014 19.5077 56.4908 22.8655 64.8706 28.9626 71.0633 35.204 77.6159 43.0426 80.8786 52.4784 80.8513 61.1125 80.9894 69.4171 77.54 75.4126 71.3254L75.7238 70.9978C72.9265 72.1482 69.7107 71.4836 67.5986 69.3186Z" transform="matrix(1 0 0 1.00251 291 240)"/><path d="M94.8657 32.7632 106.759 32.7632 106.759 55.3288C106.759 59.7299 107.062 62.7851 107.668 64.4943 108.194 66.0941 109.212 67.4871 110.576 68.475 112.024 69.4529 113.743 69.9514 115.49 69.9002 117.259 69.9535 119.003 69.4649 120.487 68.4996 121.909 67.4926 122.974 66.0579 123.525 64.4042 124.017 63.0609 124.262 60.1695 124.262 55.7465L124.262 32.7632 136.033 32.7632 136.033 52.6176C136.033 60.8084 135.386 66.4109 134.091 69.4251 132.684 72.8966 130.245 75.8526 127.105 77.8944 124.036 79.8602 120.129 80.8458 115.384 80.8513 110.24 80.8513 106.081 79.7019 102.909 77.403 99.6745 75.024 97.3164 71.6437 96.2008 67.787 95.2835 64.9475 94.8248 59.7764 94.8248 52.2736Z" transform="matrix(1 0 0 1.00251 291 240)"/><path d="M167.092 42.4037C163.654 42.3161 160.346 43.7233 158.025 46.2616 155.568 48.9542 154.271 52.5057 154.413 56.1479 154.275 59.834 155.593 63.4263 158.082 66.1488 160.381 68.6925 163.664 70.1222 167.092 70.0722 170.567 70.1643 173.914 68.7593 176.282 66.2143 178.717 63.6424 179.935 60.2733 179.935 56.1069 179.935 52.0279 178.717 48.7243 176.282 46.1961 173.89 43.6936 170.553 42.3166 167.092 42.4037M179.46 32.7632 191.222 32.7632 191.222 79.639 179.46 79.639 179.46 74.7246C177.463 76.7067 175.121 78.3057 172.547 79.4425 170.165 80.4227 167.611 80.9157 165.036 80.8922 158.981 80.8922 153.741 78.5415 149.318 73.84 144.895 69.1385 142.686 63.2984 142.692 56.3199 142.692 49.0792 144.83 43.1464 149.105 38.5213 153.034 34.0524 158.717 31.5191 164.668 31.5837 167.389 31.5666 170.084 32.1074 172.588 33.1727 175.158 34.3102 177.483 35.9346 179.436 37.9561Z" transform="matrix(1 0 0 1.00251 291 240)"/><path d="M201.829 14.6451 213.599 14.6451 213.599 79.6472 201.829 79.6472Z" transform="matrix(1 0 0 1.00251 291 240)"/><path d="M222.994 32.7468 234.764 32.7468 234.764 79.639 222.994 79.639Z" transform="matrix(1 0 0 1.00251 291 240)"/><path d="M257.797 33.7133 259.73 33.7133 259.73 48.9072 257.797 48.9072Z" fill="#231F20" transform="matrix(1 0 0 1.00251 291 240)"/><path d="M267.265 48.9072 265.332 48.9072 265.332 33.7133 267.077 33.7133 275.735 45.9339 275.735 33.7133 277.668 33.7133 277.668 48.9072 275.899 48.9072 267.265 36.7111Z" fill="#231F20" transform="matrix(1 0 0 1.00251 291 240)"/><path d="M283.278 33.7133 293.23 33.7133 293.23 35.2204 285.211 35.2204 285.211 40.528 292.411 40.528 292.411 42.0433 285.261 42.0433 285.261 48.8826 283.319 48.8826Z" fill="#231F20" transform="matrix(1 0 0 1.00251 291 240)"/><path d="M308.342 41.2242C307.745 41.9917 306.889 42.5158 305.934 42.6986 306.201 42.8499 306.433 43.0565 306.614 43.3047 306.829 43.6277 307.013 43.9706 307.163 44.3286L309.145 48.9072 307.155 48.9072 305.222 44.4924C305.059 44.0739 304.773 43.7142 304.402 43.4603 303.936 43.2352 303.42 43.1364 302.904 43.1736L299.693 43.1736 299.693 48.9072 297.76 48.9072 297.76 33.7133 304.435 33.7133C305.737 33.606 307.023 34.0554 307.974 34.9501 308.796 35.9167 309.213 37.1642 309.137 38.4312 309.186 39.4242 308.907 40.4059 308.342 41.2242ZM307.228 38.4312C307.228 36.3098 306.221 35.245 304.19 35.245L299.726 35.245 299.726 41.6665 303.927 41.6665C306.133 41.6665 307.234 40.5881 307.228 38.4312Z" fill="#231F20" transform="matrix(1 0 0 1.00251 291 240)"/><path d="M315.28 48.9072 313.273 48.9072 319.056 33.7133 321.316 33.7133 327.05 48.9072 325.092 48.9072 323.454 44.7299 316.852 44.7299ZM317.213 43.1736 323.135 43.1736 320.162 35.3596Z" fill="#231F20" transform="matrix(1 0 0 1.00251 291 240)"/><path d="M340.737 48.0554C339.439 48.8685 337.916 49.2498 336.388 49.1447 334.83 49.1984 333.277 48.9566 331.809 48.4321L331.809 46.6875C333.221 47.2136 334.717 47.4773 336.224 47.4656 337.281 47.5349 338.339 47.3407 339.303 46.9005 339.982 46.4804 340.363 45.7121 340.286 44.9183 340.311 44.4174 340.163 43.9231 339.869 43.5177 339.525 43.1081 339.078 42.7972 338.574 42.6167 337.732 42.2953 336.867 42.0379 335.986 41.8467 334.703 41.6195 333.496 41.0793 332.472 40.2741 331.79 39.5857 331.423 38.6462 331.457 37.6776 331.398 36.4775 331.934 35.3255 332.89 34.5979 334.137 33.783 335.614 33.3975 337.1 33.5003 337.893 33.4971 338.684 33.5573 339.467 33.6805 340.09 33.7644 340.703 33.9014 341.302 34.0901L341.302 35.7856C340.047 35.3571 338.729 35.1438 337.403 35.1549 336.367 35.0912 335.333 35.2942 334.397 35.7446 333.378 36.4719 333.096 37.8636 333.75 38.9308 334.065 39.3049 334.476 39.5877 334.938 39.7499 335.739 40.0535 336.56 40.3025 337.395 40.4953 338.768 40.7224 340.055 41.3135 341.122 42.2071 341.843 42.944 342.228 43.9455 342.187 44.9756 342.245 46.1793 341.702 47.3332 340.737 48.0554Z" fill="#231F20" transform="matrix(1 0 0 1.00251 291 240)"/><path d="M353.023 48.9072 351.082 48.9072 351.082 35.2204 346.036 35.2204 346.036 33.7133 358.101 33.7133 358.101 35.2204 353.023 35.2204Z" fill="#231F20" transform="matrix(1 0 0 1.00251 291 240)"/><path d="M373.205 41.2242C372.606 41.99 371.751 42.5136 370.797 42.6986 371.064 42.8499 371.296 43.0565 371.477 43.3047 371.692 43.6277 371.876 43.9706 372.026 44.3286L374.008 48.9072 372.026 48.9072 370.084 44.4924C369.925 44.0721 369.638 43.7115 369.265 43.4603 368.799 43.2352 368.282 43.1364 367.766 43.1736L364.556 43.1736 364.556 48.9072 362.623 48.9072 362.623 33.7133 369.298 33.7133C370.6 33.606 371.886 34.0554 372.837 34.9501 373.659 35.9167 374.076 37.1642 374 38.4312 374.049 39.4242 373.769 40.4059 373.205 41.2242ZM372.091 38.4312C372.091 36.3071 371.078 35.245 369.052 35.245L364.588 35.245 364.588 41.6665 368.79 41.6665C370.996 41.6665 372.097 40.5881 372.091 38.4312Z" fill="#231F20" transform="matrix(1 0 0 1.00251 291 240)"/><path d="M388.555 46.45C389.368 45.6363 389.787 44.5091 389.701 43.362L389.701 33.7133 391.634 33.7133 391.634 43.3375C391.743 44.9462 391.145 46.5223 389.996 47.654 387.147 49.6416 383.361 49.6416 380.511 47.654 379.36 46.5242 378.761 44.9467 378.873 43.3375L378.873 33.7133 380.814 33.7133 380.814 43.362C380.728 44.5109 381.15 45.6396 381.969 46.45 383.947 47.8401 386.585 47.8401 388.563 46.45Z" fill="#231F20" transform="matrix(1 0 0 1.00251 291 240)"/><path d="M408.122 46.8104 408.122 48.5304C406.701 48.9545 405.224 49.1616 403.74 49.1447 401.349 49.1447 399.53 48.4731 398.302 47.138 396.994 45.6154 396.324 43.6463 396.434 41.642 396.434 39.0592 397.03 37.0524 398.22 35.6217 399.41 34.1911 401.24 33.4758 403.708 33.4758 405.206 33.4569 406.696 33.6952 408.114 34.1802L408.114 35.8839C406.758 35.3751 405.32 35.1197 403.871 35.1303 401.906 35.1303 400.497 35.6764 399.645 36.7685 398.706 38.2095 398.26 39.9172 398.375 41.6338 398.375 45.5326 400.224 47.482 403.921 47.482 405.35 47.5108 406.773 47.2833 408.122 46.8104Z" fill="#231F20" transform="matrix(1 0 0 1.00251 291 240)"/><path d="M419.434 48.9072 417.501 48.9072 417.501 35.2204 412.447 35.2204 412.447 33.7133 424.479 33.7133 424.479 35.2204 419.434 35.2204Z" fill="#231F20" transform="matrix(1 0 0 1.00251 291 240)"/><path d="M438.658 46.45C439.474 45.6381 439.893 44.5096 439.804 43.362L439.804 33.7133 441.737 33.7133 441.737 43.3375C441.85 44.9469 441.252 46.5247 440.099 47.654 437.25 49.6416 433.464 49.6416 430.614 47.654 429.466 46.5223 428.868 44.9462 428.976 43.3375L428.976 33.7133 430.909 33.7133 430.909 43.362C430.823 44.5109 431.245 45.6396 432.064 46.45 432.989 47.1914 434.157 47.5622 435.34 47.4902 436.539 47.58 437.726 47.2078 438.658 46.45Z" fill="#231F20" transform="matrix(1 0 0 1.00251 291 240)"/><path d="M457.57 41.2242C456.975 41.99 456.122 42.5139 455.17 42.6986 455.437 42.8499 455.669 43.0565 455.85 43.3047 456.059 43.6302 456.24 43.9727 456.391 44.3286L458.373 48.9072 456.391 48.9072 454.458 44.4924C454.295 44.0737 454.01 43.7139 453.639 43.4603 453.172 43.2375 452.656 43.1387 452.14 43.1736L448.929 43.1736 448.929 48.9072 446.996 48.9072 446.996 33.7133 453.671 33.7133C454.973 33.606 456.259 34.0554 457.21 34.9501 458.03 35.9179 458.443 37.1653 458.365 38.4312 458.418 39.4246 458.139 40.4075 457.57 41.2242ZM456.464 38.4312C456.464 36.3071 455.449 35.245 453.418 35.245L448.962 35.245 448.962 41.6665 453.164 41.6665C455.369 41.6665 456.47 40.5881 456.464 38.4312Z" fill="#231F20" transform="matrix(1 0 0 1.00251 291 240)"/><path d="M462.976 33.7133 473.239 33.7133 473.239 35.2204 464.909 35.2204 464.909 40.528 472.396 40.528 472.396 42.0433 464.909 42.0433 464.909 47.3755 473.239 47.3755 473.239 48.8826 462.976 48.8826Z" fill="#231F20" transform="matrix(1 0 0 1.00251 291 240)"/><path d="M267.364 76.1252C268.173 75.3095 268.588 74.1829 268.502 73.0373L268.502 63.3803 270.443 63.3803 270.443 73.0127C270.554 74.6218 269.955 76.1987 268.805 77.3292 265.952 79.3049 262.173 79.3049 259.32 77.3292 258.173 76.1969 257.575 74.6213 257.682 73.0127L257.682 63.3803 259.648 63.3803 259.648 73.0373C259.563 74.1875 259.989 75.3168 260.811 76.1252 262.789 77.5153 265.427 77.5153 267.405 76.1252Z" fill="#231F20" transform="matrix(1 0 0 1.00251 291 240)"/><path d="M277.889 78.5742 275.956 78.5742 275.956 63.3803 277.668 63.3803 286.358 75.601 286.358 63.3803 288.316 63.3803 288.316 78.5742 286.547 78.5742 277.889 66.3454Z" fill="#231F20" transform="matrix(1 0 0 1.00251 291 240)"/><path d="M301.315 78.5742 293.902 78.5742 293.902 63.3803 300.938 63.3803C303.829 63.3803 305.279 64.7236 305.279 67.3938 305.301 68.1142 305.128 68.8272 304.779 69.4579 304.448 70.0199 303.954 70.4683 303.362 70.7439 305.033 71.1534 305.869 72.3165 305.869 74.2331 305.869 77.1327 304.345 78.5742 301.315 78.5742ZM302.813 65.469C302.138 64.9686 301.299 64.7405 300.463 64.8301L295.835 64.8301 295.835 69.9985 300.815 69.9985C302.578 69.9985 303.461 69.163 303.461 67.4921 303.509 66.7776 303.277 66.0724 302.813 65.5263ZM303.223 76.3873C303.755 75.7605 304.009 74.9446 303.927 74.1266 303.994 73.3778 303.727 72.6379 303.198 72.1035 302.459 71.6007 301.566 71.3718 300.676 71.4564L295.835 71.4564 295.835 77.0753 300.979 77.0753C301.782 77.1574 302.587 76.9255 303.223 76.4283Z" fill="#231F20" transform="matrix(1 0 0 1.00251 291 240)"/><path d="M322.652 76.9279C321.513 78.1893 319.744 78.8118 317.352 78.8118 314.96 78.8118 313.199 78.1893 312.061 76.9279 310.922 75.6665 310.349 73.6516 310.349 70.9814 310.349 68.3112 310.914 66.2962 312.061 65.0349 313.208 63.7735 314.96 63.1428 317.352 63.1428 319.744 63.1428 321.513 63.7735 322.652 65.0349 323.79 66.2962 324.363 68.3112 324.363 70.9814 324.363 73.6516 323.79 75.6665 322.652 76.9279ZM321.898 67.361C321.605 66.5328 321.023 65.8377 320.26 65.4035 318.432 64.6027 316.354 64.6027 314.526 65.4035 313.764 65.8389 313.182 66.5335 312.888 67.361 312.486 68.5241 312.303 69.7516 312.348 70.9814 312.303 72.2111 312.486 73.4386 312.888 74.6017 313.182 75.4292 313.764 76.1238 314.526 76.5593 316.354 77.36 318.432 77.36 320.26 76.5593 321.023 76.1249 321.605 75.43 321.898 74.6017 322.63 72.2437 322.63 69.7191 321.898 67.361Z" fill="#231F20" transform="matrix(1 0 0 1.00251 291 240)"/><path d="M338.861 76.1252C339.672 75.3103 340.091 74.1841 340.008 73.0373L340.008 63.3803 341.941 63.3803 341.941 73.0127C342.048 74.6213 341.45 76.1969 340.303 77.3292 337.45 79.3049 333.671 79.3049 330.818 77.3292 329.668 76.1987 329.069 74.6218 329.18 73.0127L329.18 63.3803 331.121 63.3803 331.121 73.0373C331.037 74.1858 331.459 75.3136 332.276 76.1252 334.245 77.4963 336.859 77.4963 338.828 76.1252Z" fill="#231F20" transform="matrix(1 0 0 1.00251 291 240)"/><path d="M349.386 78.5742 347.453 78.5742 347.453 63.3803 349.198 63.3803 357.856 75.601 357.856 63.3803 359.789 63.3803 359.789 78.5742 358.019 78.5742 349.386 66.3454Z" fill="#231F20" transform="matrix(1 0 0 1.00251 291 240)"/><path d="M376.211 76.7887C375.204 77.9845 373.582 78.5742 371.346 78.5742L365.399 78.5742 365.399 63.3803 371.346 63.3803C373.563 63.3803 375.179 63.9837 376.195 65.1905 377.21 66.3972 377.718 68.3576 377.718 71.0715 377.718 73.687 377.216 75.5928 376.211 76.7887ZM375.31 67.3365C375.075 66.5393 374.537 65.866 373.811 65.4608 372.929 65.0555 371.963 64.8673 370.994 64.912L367.341 64.912 367.341 77.0671 370.994 77.0671C371.928 77.1046 372.859 76.9368 373.721 76.5757 374.443 76.1918 374.995 75.552 375.269 74.7819 375.663 73.5862 375.838 72.3293 375.785 71.0715 375.834 69.8088 375.673 68.5468 375.31 67.3365Z" fill="#231F20" transform="matrix(1 0 0 1.00251 291 240)"/></g></svg>