<svg width="452" height="68" xmlns="http://www.w3.org/2000/svg" xmlns:xlink="http://www.w3.org/1999/xlink" overflow="hidden"><defs><clipPath id="clip0"><rect x="342" y="262" width="452" height="68"/></clipPath></defs><g clip-path="url(#clip0)" transform="translate(-342 -262)"><path d="M208.361 15.2299C212.566 15.2299 215.975 11.8206 215.975 7.61496 215.975 3.40932 212.566-3.17102e-05 208.361-3.17102e-05 204.154-3.17102e-05 200.745 3.40932 200.745 7.61496 200.745 11.8206 204.154 15.2299 208.361 15.2299Z" fill="#009BDA" transform="matrix(1 0 0 1.00681 342 262)"/><path d="M65.0617 67.5402C69.2674 67.5402 72.6767 64.1309 72.6767 59.9252 72.6767 55.7196 69.2674 52.3102 65.0617 52.3102 60.856 52.3102 57.4467 55.7196 57.4467 59.9252 57.4467 64.1309 60.856 67.5402 65.0617 67.5402Z" fill="#009BDA" transform="matrix(1 0 0 1.00681 342 262)"/><path d="M47.8015 54.8947C46.4971 53.5657 45.7878 51.9759 45.6492 50.1333 41.9803 53.2804 37.6754 54.854 32.7184 54.854 27.7205 54.854 23.2934 53.2804 19.4369 50.1333 14.4718 46.1057 11.9851 40.635 11.9851 33.7212 11.9851 27.5166 13.9581 22.3965 17.9042 18.3689 21.8503 14.3413 26.7096 12.3355 32.5064 12.3355 38.2381 12.3355 43.1054 14.3983 47.1086 18.5238 51.1117 22.6493 53.1093 27.6879 53.1093 33.6396 53.1093 36.7704 52.5548 39.6322 51.4623 42.233 51.9515 42.1351 52.4651 42.0862 52.9951 42.0862 55.0333 42.0862 56.7782 42.82 58.2293 44.2957 59.6806 45.7714 60.4144 47.5488 60.4144 49.6523 60.4144 50.1088 60.3737 50.541 60.3002 50.9731 63.4392 45.9263 65.0128 40.1784 65.0128 33.7293 65.0128 24.5163 61.8331 16.7056 55.4574 10.3055 49.0816 3.90528 41.4829 0.692964 32.6287 0.692964 26.7829 0.692964 21.3285 2.16052 16.2736 5.09563 11.2105 8.03075 7.23179 12.0013 4.33744 17.0236 1.4431 22.0296 0 27.5248 0 33.5092 0 42.4368 3.10633 50.1497 9.31898 56.6394 15.5317 63.1293 23.3341 66.3743 32.7184 66.3743 41.6787 66.3743 49.3018 63.2109 55.5878 56.8923 55.6938 56.7863 55.7917 56.6721 55.8976 56.5661 55.0333 56.933 54.0877 57.1205 53.0848 57.1205 51.0139 57.1205 49.261 56.3786 47.8015 54.8947Z" fill="#FFFFFF" transform="matrix(1 0 0 1.00681 342 262)"/><path d="M74.9106 18.4912 86.7489 18.4912 86.7489 40.9774C86.7489 45.3557 87.0506 48.3967 87.6539 50.0926 88.2572 51.7966 89.2193 53.1174 90.5564 54.0632 91.8936 55.0089 93.5323 55.4818 95.4809 55.4818 97.4295 55.4818 99.0845 55.017 100.446 54.0876 101.808 53.1581 102.819 51.7884 103.479 49.9866 103.968 48.6413 104.213 45.7633 104.213 41.3606L104.213 18.4912 115.929 18.4912 115.929 38.2706C115.929 46.4237 115.285 52.0004 113.996 55.0007 112.423 58.6615 110.107 61.4743 107.042 63.4311 103.985 65.3878 100.087 66.3662 95.3749 66.3662 90.2547 66.3662 86.113 65.2247 82.9577 62.9337 79.7943 60.6427 77.5767 57.4548 76.2885 53.362 75.3753 50.5329 74.9187 45.3801 74.9187 37.92L74.9187 18.4912 74.9106 18.4912Z" fill="#FFFFFF" transform="matrix(1 0 0 1.00681 342 262)"/><path d="M146.804 28.1037C143.184 28.1037 140.176 29.3837 137.779 31.9438 135.382 34.5039 134.192 37.7814 134.192 41.7928 134.192 45.8285 135.407 49.1468 137.853 51.7477 140.29 54.3485 143.29 55.653 146.853 55.653 150.531 55.653 153.58 54.373 156.001 51.8129 158.422 49.2528 159.638 45.9019 159.638 41.752 159.638 37.6917 158.422 34.3979 156.001 31.8868 153.572 29.3593 150.514 28.1037 146.804 28.1037ZM159.115 18.4912 170.832 18.4912 170.832 65.1677 159.115 65.1677 159.115 60.2351C156.833 62.412 154.534 63.9773 152.235 64.9312 149.935 65.8933 147.44 66.3662 144.758 66.3662 138.733 66.3662 133.515 64.0263 129.12 59.3464 124.718 54.6747 122.524 48.8533 122.524 41.9068 122.524 34.6996 124.652 28.7967 128.908 24.1902 133.164 19.5838 138.334 17.2846 144.424 17.2846 147.22 17.2846 149.854 17.8145 152.308 18.8744 154.762 19.9343 157.036 21.5241 159.124 23.6358L159.124 18.4912 159.115 18.4912Z" fill="#FFFFFF" transform="matrix(1 0 0 1.00681 342 262)"/><path d="M193.098 0.472863 181.382 0.472863 181.382 65.1758 193.098 65.1758 193.098 0.472863Z" fill="#FFFFFF" transform="matrix(1 0 0 1.00681 342 262)"/><path d="M214.166 18.4912 202.449 18.4912 202.449 65.1677 214.166 65.1677 214.166 18.4912Z" fill="#FFFFFF" transform="matrix(1 0 0 1.00681 342 262)"/><path d="M237.092 19.4532 239.017 19.4532 239.017 34.5772 237.092 34.5772 237.092 19.4532Z" fill="#FFFFFF" transform="matrix(1 0 0 1.00681 342 262)"/><path d="M246.525 34.5772 244.593 34.5772 244.593 19.4532 246.33 19.4532 254.948 31.6177 254.948 19.4532 256.871 19.4532 256.871 34.5772 255.11 34.5772 246.517 22.4373 246.517 34.5772 246.525 34.5772Z" fill="#FFFFFF" transform="matrix(1 0 0 1.00681 342 262)"/><path d="M262.464 19.4532 272.378 19.4532 272.378 20.9778 264.397 20.9778 264.397 26.261 271.514 26.261 271.514 27.7612 264.397 27.7612 264.397 34.5691 262.473 34.5691 262.473 19.4532 262.464 19.4532Z" fill="#FFFFFF" transform="matrix(1 0 0 1.00681 342 262)"/><path d="M287.404 26.9377C286.859 27.6633 286.06 28.1525 285.007 28.4053 285.301 28.5765 285.53 28.7803 285.685 29.0005 285.84 29.2206 286.018 29.5712 286.223 30.0197L288.195 34.5772 286.223 34.5772 284.299 30.1827C284.078 29.6854 283.818 29.3348 283.516 29.1472 283.206 28.9597 282.717 28.8619 282.024 28.8619L278.836 28.8619 278.836 34.5691 276.912 34.5691 276.912 19.4532 283.557 19.4532C285.138 19.4532 286.312 19.8609 287.078 20.6844 287.845 21.5078 288.228 22.6574 288.228 24.1494 288.228 25.2827 287.959 26.2039 287.404 26.9377ZM286.304 24.1494C286.304 22.0378 285.293 20.9778 283.271 20.9778L278.836 20.9778 278.836 27.3699 283.018 27.3699C285.212 27.3699 286.304 26.2936 286.304 24.1494Z" fill="#FFFFFF" transform="matrix(1 0 0 1.00681 342 262)"/><path d="M294.31 34.5772 292.313 34.5772 298.069 19.4532 300.328 19.4532 306.059 34.5772 304.086 34.5772 302.488 30.4191 295.908 30.4191 294.31 34.5772ZM296.235 28.8944 302.129 28.8944 299.17 21.1164 296.235 28.8944Z" fill="#FFFFFF" transform="matrix(1 0 0 1.00681 342 262)"/><path d="M319.659 33.7375C318.68 34.455 317.236 34.8218 315.32 34.8218 313.446 34.8218 311.922 34.5854 310.763 34.1207L310.763 32.4085C312.141 32.9221 313.609 33.183 315.158 33.183 316.552 33.183 317.571 32.9955 318.224 32.6205 318.876 32.2455 319.201 31.585 319.201 30.6475 319.201 30.0686 319.063 29.6038 318.794 29.2532 318.517 28.9026 318.093 28.601 317.506 28.3646 316.919 28.12 316.063 27.8672 314.938 27.5982 313.274 27.1906 312.109 26.6687 311.44 26.0246 310.763 25.3806 310.429 24.5082 310.429 23.3912 310.429 22.0785 310.902 21.0513 311.848 20.3257 312.793 19.6 314.196 19.2331 316.038 19.2331 316.854 19.2331 317.637 19.2902 318.402 19.4125 319.161 19.5266 319.765 19.6652 320.221 19.8201L320.221 21.5078C319.031 21.0839 317.742 20.8719 316.348 20.8719 315.019 20.8719 314.016 21.0676 313.355 21.4589 312.687 21.8502 312.361 22.4943 312.361 23.3831 312.361 23.8967 312.475 24.3125 312.712 24.6305 312.948 24.9484 313.34 25.2174 313.902 25.4376 314.457 25.6659 315.28 25.9105 316.381 26.1795 318.15 26.6035 319.389 27.166 320.091 27.8835 320.791 28.5929 321.151 29.5141 321.151 30.6393 321.126 31.9846 320.636 33.0118 319.659 33.7375Z" fill="#FFFFFF" transform="matrix(1 0 0 1.00681 342 262)"/><path d="M331.912 34.5772 329.988 34.5772 329.988 20.9778 324.958 20.9778 324.958 19.4532 336.934 19.4532 336.934 20.9778 331.904 20.9778 331.904 34.5772 331.912 34.5772Z" fill="#FFFFFF" transform="matrix(1 0 0 1.00681 342 262)"/><path d="M351.969 26.9377C351.423 27.6633 350.624 28.1525 349.572 28.4053 349.866 28.5765 350.094 28.7803 350.249 29.0005 350.404 29.2206 350.583 29.5712 350.787 30.0197L352.76 34.5772 350.787 34.5772 348.863 30.1827C348.643 29.6854 348.382 29.3348 348.081 29.1472 347.77 28.9597 347.281 28.8619 346.588 28.8619L343.392 28.8619 343.392 34.5691 341.468 34.5691 341.468 19.4532 348.113 19.4532C349.694 19.4532 350.868 19.8609 351.635 20.6844 352.401 21.5078 352.784 22.6574 352.784 24.1494 352.793 25.2827 352.515 26.2039 351.969 26.9377ZM350.868 24.1494C350.868 22.0378 349.857 20.9778 347.835 20.9778L343.401 20.9778 343.401 27.3699 347.583 27.3699C349.768 27.3699 350.868 26.2936 350.868 24.1494Z" fill="#FFFFFF" transform="matrix(1 0 0 1.00681 342 262)"/><path d="M367.248 32.1394C368.006 31.4545 368.389 30.4273 368.389 29.0657L368.389 19.4532 370.314 19.4532 370.314 29.0331C370.314 30.9083 369.767 32.3433 368.683 33.3298 367.599 34.3163 366.025 34.8055 363.97 34.8055 361.908 34.8055 360.326 34.3163 359.241 33.3298 358.149 32.3433 357.611 30.9083 357.611 29.0331L357.611 19.4532 359.535 19.4532 359.535 29.0576C359.535 30.4191 359.919 31.4464 360.685 32.1313 361.451 32.8242 362.552 33.1667 363.97 33.1667 365.397 33.1667 366.49 32.8242 367.248 32.1394Z" fill="#FFFFFF" transform="matrix(1 0 0 1.00681 342 262)"/><path d="M386.734 32.49 386.734 34.2022C385.421 34.6098 383.962 34.8137 382.364 34.8137 379.983 34.8137 378.182 34.1451 376.95 32.8161 375.719 31.4872 375.108 29.6609 375.108 27.3454 375.108 24.7772 375.694 22.7797 376.877 21.3529 378.059 19.9261 379.877 19.2168 382.339 19.2168 383.954 19.2168 385.413 19.4532 386.734 19.9179L386.734 21.6056C385.405 21.1083 383.994 20.8556 382.502 20.8556 380.546 20.8556 379.144 21.4018 378.295 22.5024 377.447 23.595 377.023 25.2093 377.023 27.3373 377.023 31.2181 378.866 33.1585 382.544 33.1585 384.134 33.1667 385.527 32.9465 386.734 32.49Z" fill="#FFFFFF" transform="matrix(1 0 0 1.00681 342 262)"/><path d="M397.986 34.5772 396.061 34.5772 396.061 20.9778 391.031 20.9778 391.031 19.4532 403.007 19.4532 403.007 20.9778 397.977 20.9778 397.977 34.5772 397.986 34.5772Z" fill="#FFFFFF" transform="matrix(1 0 0 1.00681 342 262)"/><path d="M417.128 32.1394C417.887 31.4545 418.27 30.4273 418.27 29.0657L418.27 19.4532 420.194 19.4532 420.194 29.0331C420.194 30.9083 419.648 32.3433 418.563 33.3298 417.48 34.3163 415.905 34.8055 413.851 34.8055 411.789 34.8055 410.206 34.3163 409.122 33.3298 408.029 32.3433 407.492 30.9083 407.492 29.0331L407.492 19.4532 409.415 19.4532 409.415 29.0576C409.415 30.4191 409.799 31.4464 410.566 32.1313 411.331 32.8242 412.433 33.1667 413.851 33.1667 415.278 33.1667 416.37 32.8242 417.128 32.1394Z" fill="#FFFFFF" transform="matrix(1 0 0 1.00681 342 262)"/><path d="M435.955 26.9377C435.408 27.6633 434.609 28.1525 433.557 28.4053 433.85 28.5765 434.079 28.7803 434.234 29.0005 434.389 29.2206 434.568 29.5712 434.772 30.0197L436.745 34.5772 434.772 34.5772 432.848 30.1827C432.627 29.6854 432.367 29.3348 432.065 29.1472 431.756 28.9597 431.266 28.8619 430.573 28.8619L427.377 28.8619 427.377 34.5691 425.453 34.5691 425.453 19.4532 432.097 19.4532C433.679 19.4532 434.853 19.8609 435.62 20.6844 436.386 21.5078 436.769 22.6574 436.769 24.1494 436.777 25.2827 436.5 26.2039 435.955 26.9377ZM434.853 24.1494C434.853 22.0378 433.842 20.9778 431.82 20.9778L427.385 20.9778 427.385 27.3699 431.568 27.3699C433.753 27.3699 434.853 26.2936 434.853 24.1494Z" fill="#FFFFFF" transform="matrix(1 0 0 1.00681 342 262)"/><path d="M441.335 19.4532 451.551 19.4532 451.551 20.9778 443.259 20.9778 443.259 26.261 450.703 26.261 450.703 27.7612 443.259 27.7612 443.259 33.0688 451.551 33.0688 451.551 34.5691 441.335 34.5691 441.335 19.4532Z" fill="#FFFFFF" transform="matrix(1 0 0 1.00681 342 262)"/><path d="M246.614 61.6699C247.373 60.9851 247.756 59.9579 247.756 58.5962L247.756 48.9919 249.681 48.9919 249.681 58.5718C249.681 60.4471 249.134 61.8819 248.049 62.8685 246.966 63.855 245.391 64.3442 243.337 64.3442 241.274 64.3442 239.693 63.855 238.608 62.8685 237.516 61.8819 236.978 60.4471 236.978 58.5718L236.978 48.9919 238.902 48.9919 238.902 58.5962C238.902 59.9579 239.285 60.9851 240.051 61.6699 240.818 62.363 241.919 62.7054 243.337 62.7054 244.764 62.7054 245.857 62.363 246.614 61.6699Z" fill="#FFFFFF" transform="matrix(1 0 0 1.00681 342 262)"/><path d="M257.091 64.1159 255.167 64.1159 255.167 48.9919 256.904 48.9919 265.521 61.1563 265.521 48.9919 267.446 48.9919 267.446 64.1159 265.685 64.1159 257.091 51.9759 257.091 64.1159Z" fill="#FFFFFF" transform="matrix(1 0 0 1.00681 342 262)"/><path d="M280.409 64.1159 273.039 64.1159 273.039 48.9919 280.034 48.9919C282.913 48.9919 284.356 50.3209 284.356 52.987 284.356 53.8022 284.193 54.4871 283.866 55.0415 283.54 55.5959 283.067 56.028 282.455 56.3216 284.119 56.7292 284.943 57.887 284.943 59.7947 284.943 62.6728 283.434 64.1159 280.409 64.1159ZM281.902 51.1035C281.469 50.6796 280.695 50.4676 279.561 50.4676L274.955 50.4676 274.955 55.6122 279.912 55.6122C281.665 55.6122 282.546 54.7806 282.546 53.1255 282.546 52.1961 282.334 51.5275 281.902 51.1035ZM282.317 61.9798C282.79 61.5232 283.018 60.7731 283.018 59.7214 283.018 58.8164 282.773 58.1479 282.292 57.7157 281.812 57.2836 280.964 57.0716 279.773 57.0716L274.955 57.0716 274.955 62.6647 280.075 62.6647C281.102 62.6565 281.844 62.4282 282.317 61.9798Z" fill="#FFFFFF" transform="matrix(1 0 0 1.00681 342 262)"/><path d="M301.648 62.4689C300.515 63.7245 298.754 64.3441 296.373 64.3441 293.992 64.3441 292.231 63.7163 291.098 62.4689 289.965 61.2134 289.394 59.2403 289.394 56.5498 289.394 53.8593 289.965 51.8862 291.098 50.6306 292.231 49.375 293.992 48.7554 296.373 48.7554 298.754 48.7554 300.507 49.3832 301.648 50.6306 302.79 51.8781 303.352 53.8593 303.352 56.5498 303.352 59.2485 302.79 61.2215 301.648 62.4689ZM300.89 52.9461C300.531 52.0493 299.985 51.397 299.243 50.9976 298.509 50.598 297.555 50.4024 296.381 50.4024 295.207 50.4024 294.253 50.6061 293.519 50.9976 292.786 51.397 292.231 52.0493 291.872 52.9461 291.514 53.843 291.334 55.0497 291.334 56.5498 291.334 58.0499 291.514 59.2566 291.872 60.1534 292.231 61.0502 292.778 61.7026 293.519 62.102 294.253 62.5015 295.207 62.6972 296.381 62.6972 297.555 62.6972 298.509 62.4934 299.243 62.102 299.976 61.7026 300.523 61.0502 300.89 60.1534 301.249 59.2566 301.428 58.0499 301.428 56.5498 301.428 55.0497 301.249 53.8511 300.89 52.9461Z" fill="#FFFFFF" transform="matrix(1 0 0 1.00681 342 262)"/><path d="M317.783 61.6699C318.542 60.9851 318.925 59.9579 318.925 58.5962L318.925 48.9919 320.848 48.9919 320.848 58.5718C320.848 60.4471 320.303 61.8819 319.218 62.8685 318.134 63.855 316.56 64.3442 314.506 64.3442 312.443 64.3442 310.861 63.855 309.777 62.8685 308.684 61.8819 308.147 60.4471 308.147 58.5718L308.147 48.9919 310.07 48.9919 310.07 58.5962C310.07 59.9579 310.453 60.9851 311.22 61.6699 311.986 62.363 313.087 62.7054 314.506 62.7054 315.932 62.7054 317.025 62.363 317.783 61.6699Z" fill="#FFFFFF" transform="matrix(1 0 0 1.00681 342 262)"/><path d="M328.268 64.1159 326.344 64.1159 326.344 48.9919 328.08 48.9919 336.698 61.1563 336.698 48.9919 338.623 48.9919 338.623 64.1159 336.862 64.1159 328.268 51.9759 328.268 64.1159Z" fill="#FFFFFF" transform="matrix(1 0 0 1.00681 342 262)"/><path d="M354.961 62.3304C353.959 63.5208 352.344 64.1159 350.126 64.1159L344.207 64.1159 344.207 48.9919 350.126 48.9919C352.336 48.9919 353.942 49.5871 354.953 50.7856 355.964 51.9841 356.47 53.9409 356.47 56.6477 356.47 59.2485 355.964 61.14 354.961 62.3304ZM354.073 52.9217C353.763 52.0412 353.266 51.4134 352.581 51.0546 351.904 50.6959 350.966 50.5166 349.776 50.5166L346.14 50.5166 346.14 62.6157 349.776 62.6157C350.901 62.6157 351.806 62.4527 352.49 62.1265 353.176 61.8005 353.681 61.2053 354.031 60.3411 354.383 59.4768 354.546 58.2539 354.546 56.6559 354.537 55.0497 354.383 53.8103 354.073 52.9217Z" fill="#FFFFFF" transform="matrix(1 0 0 1.00681 342 262)"/></g></svg>